<?xml version="1.0" encoding="UTF-8" standalone="no"?>
<svg width="56px" height="61px" viewBox="0 0 56 61" version="1.1" xmlns="http://www.w3.org/2000/svg" xmlns:xlink="http://www.w3.org/1999/xlink" xmlns:sketch="http://www.bohemiancoding.com/sketch/ns">
    <!-- Generator: Sketch 3.2.2 (9983) - http://www.bohemiancoding.com/sketch -->
    <title>Imported Layers</title>
    <desc>Created with Sketch.</desc>
    <defs></defs>
    <g id="Slides" stroke="none" stroke-width="1" fill="none" fill-rule="evenodd" sketch:type="MSPage">
        <g id="Estimate---Desktop-HD" sketch:type="MSArtboardGroup" transform="translate(-212.000000, -312.000000)" fill="#1E1FA7">
            <path d="M243.5,371.5 C243.5,372.053 243.948,372.5 244.5,372.5 L267,372.5 C267.553,372.5 268.001,372.053 268.001,371.5 L268.001,367 C268.001,366.978 267.989,366.958 267.988,366.936 C267.986,366.915 267.996,366.897 267.993,366.876 L263.512,331.036 C263.513,331.024 263.52,331.013 263.52,331 C263.52,330.924 263.512,330.851 263.497,330.78 C263.394,328.188 261.487,326.059 259.001,325.599 L259.001,322 C259.001,321.448 258.553,321 258,321 L256.751,321 L256.751,318.326 C258.051,317.902 259.001,316.692 259.001,315.25 C259.001,313.458 257.542,312 255.75,312 L246.75,312 C244.958,312 243.5,313.458 243.5,315.25 C243.5,316.692 244.45,317.902 245.75,318.326 L245.75,321 L244.5,321 C243.948,321 243.5,321.448 243.5,322 L243.5,339 L236.501,339 L236.501,322 C236.501,321.448 236.053,321 235.5,321 L234.251,321 L234.251,318.326 C235.551,317.902 236.501,316.692 236.501,315.25 C236.501,313.458 235.042,312 233.25,312 L224.25,312 C222.458,312 221,313.458 221,315.25 C221,316.692 221.95,317.902 223.25,318.326 L223.25,321 L222,321 C221.448,321 221,321.448 221,322 L221,325.596 C218.478,326.062 216.555,328.253 216.505,330.897 L212.008,366.876 C212.005,366.897 212.015,366.915 212.013,366.936 C212.012,366.958 212,366.978 212,367 L212,371.5 C212,372.053 212.448,372.5 213,372.5 L235.5,372.5 C236.053,372.5 236.501,372.053 236.501,371.5 L236.501,363.5 L243.5,363.5 L243.5,371.5 L243.5,371.5 Z M214.001,368 L234.501,368 L234.501,370.5 L214.001,370.5 L214.001,368 Z M223.001,323 L234.501,323 L234.501,325.5 L223.001,325.5 L223.001,323 Z M224.25,314 L233.25,314 C233.94,314 234.5,314.561 234.5,315.25 C234.5,315.94 233.94,316.5 233.25,316.5 L224.25,316.5 C223.561,316.5 223.001,315.94 223.001,315.25 C223.001,314.561 223.561,314 224.25,314 L224.25,314 Z M225.251,318.5 L232.251,318.5 L232.251,321 L225.251,321 L225.251,318.5 Z M222,327.5 L234.5,327.5 L234.5,330 L218.646,330 C219.078,328.556 220.417,327.5 222,327.5 L222,327.5 Z M218.383,332 L234.5,332 L234.5,339 L231,339 C230.448,339 230,339.448 230,340 L230,349 C230,349.553 230.448,350 231,350 L234.5,350 L234.5,366 L214.133,366 L218.383,332 L218.383,332 Z M245.501,323 L257.001,323 L257.001,325.5 L245.501,325.5 L245.501,323 Z M246.75,314 L255.75,314 C256.44,314 257,314.561 257,315.25 C257,315.94 256.44,316.5 255.75,316.5 L246.75,316.5 C246.061,316.5 245.501,315.94 245.501,315.25 C245.501,314.561 246.061,314 246.75,314 L246.75,314 Z M247.751,318.5 L254.751,318.5 L254.751,321 L247.751,321 L247.751,318.5 Z M245.501,330 L245.501,327.5 L258,327.5 C259.583,327.5 260.923,328.556 261.355,330 L245.501,330 L245.501,330 Z M236.501,350 L243.501,350 L243.501,357 L236.501,357 L236.501,350 Z M245.501,341 L248,341 L248,348 L232.001,348 L232.001,341 L245.501,341 L245.501,341 Z M236.501,359 L243.501,359 L243.501,361.5 L236.501,361.5 L236.501,359 Z M245.501,362.5 L245.501,350 L249,350 C249.553,350 250.001,349.553 250.001,349 L250.001,340 C250.001,339.448 249.553,339 249,339 L245.501,339 L245.501,332 L261.618,332 L265.868,366 L245.501,366 L245.501,362.5 L245.501,362.5 Z M245.501,368 L266.001,368 L266.001,370.5 L245.501,370.5 L245.501,368 Z" id="Imported-Layers" sketch:type="MSShapeGroup"></path>
        </g>
    </g>
</svg>